name C:\Users\tom_v\MusculoskeletalSpecialization_revisited\Results\Case_20\motion.mot
datacolumns 32
datarows 17
range 0.12100455 0.19844746
endheader 
time	pelvis_tilt	pelvis_list	pelvis_rotation	pelvis_tx	pelvis_ty	pelvis_tz	hip_flexion_r	hip_adduction_r	hip_rotation_r	knee_angle_r	ankle_angle_r	subtalar_angle_r	mtp_angle_r	hip_flexion_l	hip_adduction_l	hip_rotation_l	knee_angle_l	ankle_angle_l	subtalar_angle_l	mtp_angle_l	lumbar_extension	lumbar_bending	lumbar_rotation	arm_flex_r	arm_add_r	arm_rot_r	elbow_flex_r	arm_flex_l	arm_add_l	arm_rot_l	elbow_flex_l	
          0.12100455	        -11.56187483	         10.64462631	        -14.20192888	          1.00593224	          0.92788710	          0.01978203	         -0.13895631	         -8.56142221	          3.62766028	        -38.72356216	        -17.86724415	         -9.86639010	         -2.80826738	         58.64489672	         -4.29170229	         -9.24181044	        -56.74184557	         15.60480405	          1.34710243	         -1.93147349	         -5.18408763	        -12.29554223	         16.85964577	         49.93666144	        -42.47432576	        -12.98594415	        114.93436683	        -69.96545643	        -39.33264846	        -12.99295976	          0.01360087	
          0.12584473	        -10.62999947	         10.51814566	        -14.89888354	          1.04503424	          0.93089234	          0.02136336	         -1.41261277	         -9.09232685	          4.29081978	        -39.25208544	        -18.13681077	         -6.83188580	         -1.99998188	         58.00210735	         -4.68650911	         -9.54170692	        -53.94370452	         16.08402801	         -0.89756002	         -1.88438860	         -6.40456660	        -12.74783877	         17.62531200	         49.93401250	        -42.46088550	        -12.68126430	        114.79443976	        -69.90743500	        -39.62557544	        -12.13655965	          0.17249825	
          0.13068491	         -9.62582763	         10.28344749	        -15.62353284	          1.08410723	          0.93399569	          0.02294902	         -2.69687384	         -9.45631957	          5.11460006	        -39.74058743	        -18.08070207	         -5.20614970	          0.39855668	         57.05095952	         -5.09281387	         -9.77456125	        -50.94086375	         16.50117772	         -2.94548543	         -1.89075198	         -7.75369714	        -13.13894094	         18.22510026	         49.93227570	        -42.48300839	        -12.29182021	        114.23170268	        -69.71867354	        -39.37927224	        -10.83151408	          0.20905827	
          0.13552509	         -8.57964586	          9.95632225	        -16.36138859	          1.12319086	          0.93713624	          0.02451703	         -3.94618234	         -9.67744571	          6.04778206	        -40.17846995	        -18.41474801	         -5.11862885	          2.78603648	         55.84451778	         -5.48412088	         -9.90799955	        -47.80772693	         16.79381268	         -4.87386935	         -1.88582320	         -9.17546186	        -13.49078478	         18.64259369	         49.93269061	        -42.52618601	        -11.86790113	        112.91785510	        -69.51539066	        -38.54391813	         -9.77206918	          0.05770551	
          0.14036527	         -7.64944108	          9.54241823	        -17.08529603	          1.16229597	          0.94002487	          0.02598885	         -4.97223407	         -9.75092971	          7.06850896	        -40.65146316	        -18.70431597	         -5.38630825	          4.19517434	         54.59488455	         -5.88150680	         -9.88192355	        -44.66120189	         16.94160489	         -6.74692605	         -1.88205359	        -10.46864384	        -13.76134145	         18.88771229	         49.93268883	        -42.55323514	        -11.44544884	        110.55206771	        -69.54514921	        -37.07627451	         -9.94437738	          0.02930398	
          0.14520546	         -6.87679410	          9.03129962	        -17.75478968	          1.20148706	          0.94259900	          0.02723704	         -5.74773525	         -9.69464106	          8.06213116	        -41.17744327	        -18.60867075	         -5.04570253	          4.91872883	         53.37324099	         -6.27109634	         -9.64941759	        -41.57848171	         16.98027537	         -8.61191395	         -1.89516195	        -11.58431131	        -13.90789695	         18.95927483	         49.93249951	        -42.55264718	        -11.08555395	        106.90095770	        -69.75328842	        -34.97889144	        -11.40927047	          0.12054679	
          0.15004564	         -6.20964912	          8.42225827	        -18.34152978	          1.24084598	          0.94498095	          0.02814968	         -6.35152372	         -9.55219431	          8.89548840	        -41.71283683	        -18.30439333	         -4.00360587	          5.45563797	         52.12866142	         -6.61108476	         -9.20732967	        -38.58117004	         16.87988618	        -10.53426079	         -1.37949642	        -12.58545388	        -13.92406722	         18.87045955	         49.93257332	        -42.54885684	        -10.83690809	        101.85114897	        -69.91221328	        -32.32273508	        -12.93249112	          0.09844490	
          0.15488582	         -5.60973284	          7.73513840	        -18.83993221	          1.28041736	          0.94725643	          0.02869776	         -6.82539606	         -9.36277040	          9.49124125	        -42.23785388	        -18.00937581	         -2.65564685	          5.88463628	         50.81821767	         -6.88087921	         -8.60606670	        -35.67046185	         16.64571346	        -12.48420726	          0.07601872	        -13.51176392	        -13.83125252	         18.67716968	         49.92347521	        -42.55154876	        -10.75180029	         95.49532759	        -69.95360051	        -29.26879844	        -12.93599021	          0.01761544	
          0.15972600	         -5.06612554	          7.00049676	        -19.26337824	          1.32019624	          0.94943908	          0.02892033	         -7.16217056	         -9.15429025	          9.83860475	        -42.77819940	        -17.68460644	         -1.32055740	          6.11115668	         49.43080591	         -7.08694140	         -7.93357635	        -32.84553449	         16.34599754	        -14.30611298	          1.99470637	        -14.37016849	        -13.65906296	         18.46031765	         49.90268077	        -42.55290680	        -10.86316067	         88.15507170	        -69.94439407	        -26.02767985	        -10.25515038	          0.20956297	
          0.16456618	         -4.57378145	          6.24065656	        -19.62635446	          1.36014924	          0.95151943	          0.02886474	         -7.34745746	         -8.93934164	          9.96326808	        -43.36862882	        -17.24432363	         -0.11560541	          6.19555914	         47.96773264	         -7.24261500	         -7.27456330	        -30.10976736	         16.02651518	        -15.83768254	          3.81197390	        -15.16999745	        -13.42216313	         18.27360629	         49.89537856	        -42.54603187	        -11.11961773	         80.28087216	        -69.92928667	        -22.80480012	         -4.69606436	          0.98505781	
          0.16940637	         -4.13265986	          5.47625768	        -19.93700370	          1.40023564	          0.95347614	          0.02856138	         -7.36391863	         -8.72722951	          9.90095449	        -44.03409719	        -16.70223400	          0.95948670	          6.26053970	         46.44032997	         -7.34748021	         -6.68890910	        -27.46179288	         15.69467692	        -17.09303879	          5.08343973	        -15.91688557	        -13.12596588	         18.13071047	         49.93443057	        -42.53906433	        -11.35996950	         72.29468585	        -69.85139876	        -19.79713535	          2.89970251	          2.45735156	
          0.17424655	         -3.78646201	          4.77629874	        -20.20031714	          1.44043000	          0.95519804	          0.02805186	         -7.13125010	         -8.56264656	          9.68534738	        -44.80769061	        -16.09683006	          1.96651331	          6.35020047	         44.91466112	         -7.36641637	         -6.23167886	        -24.88657329	         15.23335898	        -18.29178405	          5.92285243	        -16.54500081	        -12.81740737	         18.02000910	         49.89627139	        -42.54572379	        -11.43585416	         64.69363250	        -69.67263844	        -17.16066478	         10.74439880	          4.80866685	
          0.17908673	         -3.61074193	          4.24768223	        -20.41372027	          1.48075846	          0.95651106	          0.02741893	         -6.53438073	         -8.51172691	          9.34396629	        -45.71683152	        -15.45036852	          2.95277214	          6.45759290	         43.49362951	         -7.23817358	         -5.95386357	        -22.36332924	         14.58971649	        -19.57195750	          6.43559235	        -16.93156681	        -12.58578815	         17.93060078	         49.28943772	        -42.55102637	        -11.52198076	         58.30706053	        -69.43430723	        -14.98408795	         16.74037046	          8.32683245	
          0.18392691	         -3.61141291	          3.92182525	        -20.54905537	          1.52128960	          0.95738013	          0.02674010	         -5.58889567	         -8.57693025	          8.89436445	        -46.73458707	        -14.79717966	          3.89528143	          6.56265114	         42.19390184	         -6.92361791	         -5.85137299	        -19.88436578	         13.86291758	        -20.85066912	          6.41677032	        -17.06007465	        -12.46763379	         17.84689076	         47.42390927	        -42.53560462	        -11.99792485	         54.21671543	        -69.24821927	        -13.22877121	         19.34243346	         13.22665125	
          0.18876709	         -3.70581533	          3.73235517	        -20.56416862	          1.56206452	          0.95792659	          0.02603626	         -4.45123148	         -8.69433853	          8.34893835	        -47.80667326	        -14.01453422	          4.79583463	          5.76957101	         40.92413804	         -6.42384587	         -5.85258911	        -17.46039708	         13.52039311	        -21.81051025	          3.10704453	        -17.05378563	        -12.41929106	         17.72796797	         43.92362037	        -42.53779298	        -12.74896687	         53.14708478	        -69.26578009	        -11.68468525	         18.16043381	         19.55356516	
          0.19360727	         -3.80632964	          3.59245742	        -20.42889965	          1.60302255	          0.95827740	          0.02527954	         -3.26715738	         -8.79326319	          7.71568368	        -48.91444906	        -12.53381419	          5.71040664	         -1.18175491	         39.59698784	         -5.76519809	         -5.89348814	        -15.10350479	         13.08436506	        -22.77262908	         -1.69152311	        -17.05343756	        -12.36634959	         17.50122670	         39.05962929	        -42.55596683	        -13.15517897	         55.00229117	        -69.53343662	        -10.04195201	         14.09733905	         27.14326992	
          0.19844746	         -3.91821746	          3.46330374	        -20.15686908	          1.64404567	          0.95843309	          0.02450342	         -2.00843502	         -8.81842546	          7.04925088	        -50.02476367	        -12.38749376	          6.11366540	         -3.89941215	         38.24254324	         -5.00903322	         -5.99004562	        -12.87814521	         11.95364009	        -23.98567551	         -3.80078746	        -17.06624415	        -12.26211489	         17.14568444	         33.35737015	        -42.38907898	        -13.14628992	         59.21287616	        -69.86547027	         -8.09889162	          8.71701347	         35.61962070	
